<svg xmlns="http://www.w3.org/2000/svg" width="1200" height="600" viewBox="0 0 1200 600" font-family="'Segoe UI', Roboto, 'Helvetica Neue', Arial, sans-serif">
<defs><linearGradient id="bg" x1="0" y1="0" x2="1" y2="1"><stop offset="0" stop-color="#0f172a"/><stop offset="1" stop-color="#1e3a5f"/></linearGradient>
<radialGradient id="glow" cx="0.82" cy="0.3" r="0.55"><stop offset="0" stop-color="#ffffff" stop-opacity="0.28"/><stop offset="1" stop-color="#ffffff" stop-opacity="0"/></radialGradient></defs>
<rect width="1200" height="600" fill="url(#bg)"/><rect width="1200" height="600" fill="url(#glow)"/>
<g transform="translate(50 0)"><g transform="translate(930 310)" font-family="Consolas, 'Courier New', monospace"><rect x="-160" y="-170" width="330" height="300" rx="22" fill="#111827" stroke="#334155" stroke-width="3"/>
<circle cx="-132" cy="-142" r="8" fill="#f87171"/><circle cx="-106" cy="-142" r="8" fill="#fbbf24"/><circle cx="-80" cy="-142" r="8" fill="#4ade80"/>
<text x="-132" y="-80" font-size="30" fill="#4ade80">&lt;game&gt;</text><text x="-104" y="-30" font-size="30" fill="#93c5fd">skor += 10;</text><text x="-104" y="20" font-size="30" fill="#f9a8d4">lompat();</text><text x="-132" y="70" font-size="30" fill="#4ade80">&lt;/game&gt;</text></g></g>
<g><rect x="80" y="72" width="304" height="48" rx="24" fill="#ffffff"/><g transform="translate(112 96)" fill="#f5a623"><circle r="9"/><g stroke="#f5a623" stroke-width="3" stroke-linecap="round"><line x1="0" y1="-14" x2="0" y2="-18" transform="rotate(0)"/><line x1="0" y1="-14" x2="0" y2="-18" transform="rotate(45)"/><line x1="0" y1="-14" x2="0" y2="-18" transform="rotate(90)"/><line x1="0" y1="-14" x2="0" y2="-18" transform="rotate(135)"/><line x1="0" y1="-14" x2="0" y2="-18" transform="rotate(180)"/><line x1="0" y1="-14" x2="0" y2="-18" transform="rotate(225)"/><line x1="0" y1="-14" x2="0" y2="-18" transform="rotate(270)"/><line x1="0" y1="-14" x2="0" y2="-18" transform="rotate(315)"/></g></g><text x="138" y="104" font-size="24" font-weight="800" fill="#0f172a" letter-spacing="1.5">BIMBEL CAHAYA</text></g>
<text x="80" y="228" font-size="66" font-weight="800" fill="#ffffff" letter-spacing="-1.5">Kelas coding akhir</text><text x="80" y="304" font-size="66" font-weight="800" fill="#ffffff" letter-spacing="-1.5">pekan untuk pemula</text>
<text x="80" y="388" font-size="30" font-weight="600" fill="#cbd5e1">Game pertamamu dalam 4 pertemuan</text>
<g><rect x="80" y="440" width="270" height="64" rx="32" fill="#4ade80"/><text x="215" y="482" font-size="28" font-weight="800" fill="#0f172a" text-anchor="middle">Mulai Sabtu ini</text></g>
</svg>