<svg xmlns="http://www.w3.org/2000/svg" width="1200" height="600" viewBox="0 0 1200 600" font-family="'Segoe UI', Roboto, 'Helvetica Neue', Arial, sans-serif">
<defs><linearGradient id="bg" x1="0" y1="0" x2="1" y2="1"><stop offset="0" stop-color="#831843"/><stop offset="1" stop-color="#e11d48"/></linearGradient>
<radialGradient id="glow" cx="0.82" cy="0.3" r="0.55"><stop offset="0" stop-color="#ffffff" stop-opacity="0.28"/><stop offset="1" stop-color="#ffffff" stop-opacity="0"/></radialGradient></defs>
<rect width="1200" height="600" fill="url(#bg)"/><rect width="1200" height="600" fill="url(#glow)"/>
<g transform="translate(0 0)"><g transform="translate(960 300)"><circle r="170" fill="#ffffff" opacity="0.12"/><text x="0" y="40" font-size="150" font-weight="900" fill="#fde68a" text-anchor="middle">100%</text></g></g>
<g><rect x="80" y="72" width="304" height="48" rx="24" fill="#ffffff"/><g transform="translate(112 96)" fill="#f5a623"><circle r="9"/><g stroke="#f5a623" stroke-width="3" stroke-linecap="round"><line x1="0" y1="-14" x2="0" y2="-18" transform="rotate(0)"/><line x1="0" y1="-14" x2="0" y2="-18" transform="rotate(45)"/><line x1="0" y1="-14" x2="0" y2="-18" transform="rotate(90)"/><line x1="0" y1="-14" x2="0" y2="-18" transform="rotate(135)"/><line x1="0" y1="-14" x2="0" y2="-18" transform="rotate(180)"/><line x1="0" y1="-14" x2="0" y2="-18" transform="rotate(225)"/><line x1="0" y1="-14" x2="0" y2="-18" transform="rotate(270)"/><line x1="0" y1="-14" x2="0" y2="-18" transform="rotate(315)"/></g></g><text x="138" y="104" font-size="24" font-weight="800" fill="#831843" letter-spacing="1.5">BIMBEL CAHAYA</text></g>
<text x="80" y="228" font-size="66" font-weight="800" fill="#ffffff" letter-spacing="-1.5">Kelas intensif</text><text x="80" y="304" font-size="66" font-weight="800" fill="#ffffff" letter-spacing="-1.5">ujian akhir</text>
<text x="80" y="388" font-size="30" font-weight="600" fill="#ffe4e6">Dijamin lulus 100% atau uang kembali*</text>
<g><rect x="80" y="440" width="260" height="64" rx="32" fill="#ffffff"/><text x="210" y="482" font-size="28" font-weight="800" fill="#831843" text-anchor="middle">Daftar hari ini</text></g>
</svg>